<svg xmlns="http://www.w3.org/2000/svg" height="135" width="395" viewBox="0 0 395 135" fill="currentColor"><title>Eater</title><desc>Eater logo</desc><path d="M41.448 111.279h22.363V135H40.099C15.423 135 0 126.129 0 95.464V0h63.81v23.721H25.834V55.35h32.194v23.529H25.833v16.2c0 12.15 5.205 16.2 15.615 16.2M124.923 135V91.029h-24.098V135H74.992V39.536C74.992 8.87 90.415 0 115.091 0h35.857v135zm-24.098-67.693h24.098V23.721h-8.483c-10.41 0-15.615 4.05-15.615 16.2zM183.527 135V23.721h-23.519V0h72.871v23.721H209.36V135zm99.853-23.721h22.362V135H282.03c-24.676 0-40.098-8.871-40.098-39.536V0h63.81v23.721h-37.978V55.35h32.195v23.529h-32.195v16.2c0 12.15 5.205 16.2 15.616 16.2M316.924 135V0h34.315c23.905 0 41.641 9.643 41.641 38.571V49.95c0 16.971-6.555 27.964-16.772 33.943L395 135h-27.375l-16.193-45.321h-8.675V135zm49.159-84.664V39.729c0-11.765-6.169-16.008-15.808-16.008h-7.518v42.236h7.518c10.217 0 15.808-5.014 15.808-15.621" fill="currentColor"></path></svg>