<svg role="img" aria-label="Time Out" xmlns="http://www.w3.org/2000/svg" viewBox="0 0 2764 1088" fill="currentColor"><g transform="translate(0.000000,1088.000000) scale(0.100000,-0.100000)"><path d="M888 10540 c-224 -55 -397 -191 -492 -383 -83 -169 -79 -139 -83
-789 l-4 -577 26 -78 c37 -110 86 -185 185 -283 144 -145 303 -237 637 -369
190 -76 274 -122 336 -186 66 -68 111 -183 139 -351 8 -49 12 -775 14 -2509 2
-1342 5 -2777 7 -3190 l2 -750 27 -97 c97 -354 325 -587 655 -670 127 -32 369
-32 496 0 168 42 305 120 418 238 116 122 188 253 236 429 l28 100 6 3190 c4
2290 9 3209 17 3259 30 184 76 292 155 369 62 60 144 103 342 177 192 71 383
166 488 241 164 117 278 262 321 409 24 81 24 1122 0 1239 -61 296 -269 510
-567 581 -80 19 -123 20 -1697 19 -1549 0 -1618 -1 -1692 -19z m3301 -361
c112 -25 221 -110 260 -202 38 -88 41 -135 41 -648 l0 -500 -24 -47 c-44 -87
-177 -193 -334 -268 -41 -19 -147 -64 -236 -98 -270 -106 -381 -170 -490 -281
-125 -128 -192 -292 -237 -581 -10 -61 -14 -795 -19 -3254 -5 -3014 -6 -3178
-23 -3235 -82 -272 -261 -409 -537 -409 -58 0 -130 6 -160 13 -190 46 -322
181 -387 396 -17 57 -18 222 -23 3230 -6 3290 -5 3203 -46 3405 -42 206 -135
380 -257 481 -102 86 -201 138 -442 234 -278 111 -402 182 -503 289 -96 102
-92 70 -92 633 0 518 3 556 46 649 28 59 107 138 162 161 97 42 72 41 1697 42
1018 0 1575 -3 1604 -10z M18095 10298 c-239 -16 -515 -114 -745 -267 -334
-221 -632 -582 -855 -1036 -439 -894 -658 -2263 -631 -3940 13 -865 74 -1505
201 -2140 189 -936 509 -1629 964 -2086 302 -302 614 -473 978 -535 132 -23
431 -15 553 14 195 47 410 140 572 249 624 419 1049 1187 1296 2343 7 31 10
-101 11 -435 1 -475 6 -597 37 -810 50 -356 176 -714 329 -930 110 -157 282
-298 442 -365 137 -57 241 -73 443 -67 351 11 563 90 820 303 41 34 83 71 94
83 l19 20 30 -46 c110 -166 290 -288 510 -346 109 -28 374 -30 481 -4 363 91
584 327 683 732 16 65 18 252 23 2585 l5 2514 40 -36 c44 -39 156 -114 186
-123 19 -6 19 -45 19 -1785 0 -1908 -1 -1890 51 -2194 145 -859 549 -1417
1175 -1625 406 -134 882 -94 1179 100 170 111 270 239 337 431 l33 93 0 205
c0 162 -4 223 -19 290 -56 256 -168 430 -337 519 -31 17 -96 40 -145 52 -108
25 -153 50 -221 121 -96 102 -154 255 -173 457 -6 66 -10 702 -10 1671 l0
1565 88 23 c319 82 555 316 642 637 33 120 39 348 12 475 -36 176 -101 307
-210 422 -116 123 -265 211 -442 262 l-85 24 -5 773 -5 774 -28 100 c-89 317
-279 534 -557 636 -222 81 -508 75 -730 -15 -92 -37 -165 -84 -247 -160 -150
-140 -237 -302 -283 -528 -20 -98 -21 -131 -20 -673 0 -313 -2 -666 -6 -783
l-7 -213 -41 -21 c-102 -51 -231 -165 -294 -260 -13 -21 -27 -38 -31 -38 -3 0
-21 26 -40 57 -99 164 -277 295 -488 360 -82 25 -100 27 -278 27 -166 0 -200
-3 -270 -22 -215 -60 -391 -187 -508 -369 -69 -106 -102 -188 -148 -368 -10
-39 -14 -492 -19 -2125 -5 -1605 -9 -2085 -19 -2121 -14 -52 -44 -91 -65 -83
-24 9 -48 85 -58 184 -5 52 -11 977 -14 2055 -3 1290 -8 1987 -15 2039 -31
233 -151 471 -301 598 -180 153 -367 218 -627 218 -269 0 -484 -83 -651 -250
-77 -76 -116 -131 -171 -237 -21 -43 -39 -74 -39 -69 0 20 -64 383 -86 491
-309 1479 -966 2386 -1869 2580 -97 21 -323 32 -460 23z m448 -401 c351 -93
684 -362 949 -767 443 -674 695 -1735 758 -3190 13 -300 13 -1016 0 -1320 -74
-1724 -420 -2885 -1050 -3521 -294 -297 -616 -449 -952 -449 -62 0 -141 5
-175 10 -172 28 -357 104 -528 217 -123 82 -349 303 -453 444 -555 748 -834
1980 -856 3774 -29 2420 428 4029 1315 4621 149 99 285 157 457 195 133 29
400 22 535 -14z m7164 -233 c206 -53 344 -224 382 -471 7 -48 11 -336 11 -875
0 -763 1 -805 19 -844 29 -65 77 -95 168 -106 330 -43 506 -178 559 -428 20
-96 14 -248 -15 -341 -40 -127 -135 -240 -251 -299 -71 -36 -117 -48 -224 -59
-64 -6 -95 -15 -121 -32 -43 -29 -87 -95 -112 -169 -17 -52 -18 -134 -21
-1695 -2 -1181 0 -1672 8 -1755 30 -294 129 -524 295 -685 108 -105 212 -162
387 -210 31 -8 70 -26 85 -39 41 -34 80 -111 104 -203 26 -99 36 -306 20 -385
-63 -301 -408 -452 -886 -387 -162 22 -346 99 -482 202 -320 242 -533 683
-635 1312 l-22 140 -6 1865 c-6 1972 -4 1889 -50 1980 -26 51 -54 73 -154 121
-208 101 -300 253 -300 499 0 265 110 429 351 523 81 32 126 74 142 134 7 24
11 338 11 858 0 517 4 844 11 884 44 272 204 442 451 480 76 12 199 5 275 -15z
m-4186 -2288 c191 -41 326 -174 390 -386 l23 -75 7 -2080 c6 -1823 8 -2088 22
-2146 60 -256 276 -428 489 -390 200 35 355 212 384 438 3 28 7 971 8 2095 2
2293 -4 2105 76 2273 89 185 260 285 490 285 289 0 481 -156 547 -445 17 -76
18 -210 18 -2930 l0 -2850 -23 -85 c-32 -124 -76 -205 -147 -276 -106 -107
-215 -148 -395 -148 -271 0 -445 121 -526 367 -15 45 -36 94 -46 110 -47 66
-168 89 -239 44 -20 -12 -68 -58 -108 -102 -264 -292 -515 -415 -846 -415
-193 0 -320 53 -450 185 -165 168 -276 432 -338 800 -48 283 -48 292 -45 2855
l3 2415 23 75 c71 227 199 346 427 394 46 9 195 5 256 -8z M18115 8293 c-113
-41 -209 -122 -258 -219 -97 -192 -196 -608 -256 -1074 -60 -464 -81 -841 -88
-1550 -10 -1043 36 -1704 158 -2297 56 -272 146 -538 216 -641 154 -226 480
-256 674 -62 170 170 317 769 384 1560 33 399 40 612 40 1250 -1 867 -28 1344
-111 1904 -60 407 -170 815 -255 947 -43 67 -111 126 -189 163 -57 27 -78 31
-165 33 -77 3 -112 -1 -150 -14z m168 -375 c24 -18 79 -178 126 -365 137 -548
207 -1424 195 -2473 -6 -597 -29 -991 -79 -1395 -48 -382 -126 -722 -209 -917
-35 -81 -100 -83 -132 -4 -206 508 -307 1440 -291 2696 14 1038 87 1740 231
2229 56 189 83 241 126 241 9 0 24 -6 33 -12z M13351 7799 c-520 -112 -966
-520 -1300 -1189 -128 -256 -222 -499 -328 -850 -9 -29 -11 -15 -12 90 -3 315
-36 559 -102 768 -168 523 -508 928 -904 1077 -208 79 -489 74 -727 -11 -212
-77 -444 -228 -634 -415 l-82 -80 -37 62 c-165 271 -434 448 -724 478 -280 29
-590 -83 -973 -351 -43 -30 -63 -39 -66 -30 -2 8 -31 50 -65 94 -114 151 -273
256 -452 299 -77 18 -110 20 -230 16 -160 -5 -257 -27 -374 -82 -281 -134
-460 -397 -511 -750 -6 -45 -10 -1077 -10 -2900 0 -2406 2 -2844 14 -2925 74
-487 398 -793 866 -817 452 -23 808 211 939 618 59 181 54 32 61 2109 6 1687
8 1919 23 2025 16 119 44 265 52 273 11 12 47 -175 72 -381 14 -115 17 -364
23 -1987 7 -2047 2 -1881 69 -2077 73 -210 221 -388 406 -485 212 -111 514
-128 742 -43 282 106 464 336 546 690 21 89 21 109 27 2005 5 1420 10 1938 19
2005 12 91 50 287 56 293 5 6 35 -135 50 -237 38 -257 38 -288 45 -2156 5
-1432 9 -1851 19 -1890 47 -185 80 -265 157 -381 117 -178 290 -298 510 -355
77 -20 112 -23 259 -23 203 1 275 17 430 93 215 106 362 280 444 527 55 165
61 245 61 835 l1 534 33 -110 c209 -703 676 -1383 1151 -1675 360 -222 802
-269 1230 -133 437 139 797 464 1014 913 167 346 196 637 90 910 -126 328
-476 539 -791 476 -151 -29 -218 -67 -429 -238 -99 -80 -185 -128 -230 -128
-167 1 -271 227 -271 585 0 262 53 455 134 482 51 17 292 32 628 38 323 7 418
18 538 65 339 131 559 450 639 926 24 146 24 550 -1 774 -91 833 -293 1483
-605 1952 -249 373 -545 592 -921 680 -65 15 -132 21 -280 24 -169 3 -208 1
-289 -17z m430 -364 c381 -66 678 -330 909 -807 216 -445 350 -1015 401 -1703
25 -338 -15 -614 -119 -825 -37 -76 -62 -110 -122 -170 -132 -132 -219 -159
-515 -160 -378 -1 -716 -25 -829 -61 -173 -54 -299 -249 -352 -545 -22 -125
-25 -437 -5 -569 60 -399 264 -641 564 -673 190 -20 352 47 577 239 115 97
173 124 270 123 91 0 143 -21 216 -87 118 -106 169 -294 130 -477 -59 -276
-241 -576 -467 -768 -199 -170 -428 -265 -705 -293 -543 -55 -1034 324 -1424
1101 -145 289 -226 526 -305 895 -246 1150 -174 2366 201 3377 297 801 727
1292 1229 1403 82 18 245 18 346 0z m-6857 -78 c115 -53 193 -140 268 -297 47
-100 60 -115 112 -142 32 -16 53 -19 105 -16 85 6 156 42 326 163 405 289 672
358 913 236 143 -73 220 -163 332 -397 85 -175 118 -214 191 -234 86 -23 149
8 237 118 84 105 271 288 365 358 320 237 620 295 872 168 332 -168 617 -638
674 -1110 8 -64 11 -834 11 -2565 0 -2431 0 -2475 -20 -2556 -56 -236 -201
-380 -421 -419 -271 -49 -509 59 -613 279 -76 161 -70 -14 -76 2052 -7 2021
-5 1963 -66 2265 -78 385 -216 567 -415 546 -124 -12 -214 -86 -284 -231 -65
-134 -102 -298 -137 -605 -8 -75 -13 -648 -17 -1985 l-6 -1880 -32 -93 c-39
-110 -82 -181 -147 -240 -196 -180 -568 -151 -719 55 -49 68 -85 143 -110 231
l-22 77 -1 1685 c-1 927 -5 1760 -8 1851 -17 504 -102 864 -240 1026 -132 153
-365 122 -485 -65 -85 -132 -138 -350 -173 -702 -9 -94 -13 -582 -13 -1945 -1
-1718 -2 -1824 -19 -1895 -52 -215 -178 -358 -364 -413 -83 -25 -205 -31 -300
-13 -224 40 -361 175 -425 418 l-21 83 -1 2850 c0 2742 1 2853 19 2930 54 234
192 384 396 430 102 23 242 15 314 -18z M13475 6117 c-121 -41 -211 -120 -268
-237 -45 -92 -64 -165 -78 -295 -33 -316 63 -571 251 -663 51 -25 65 -27 175
-27 110 0 124 2 175 27 70 35 139 103 179 178 108 203 104 566 -9 790 -85 169
-283 274 -425 227z m116 -423 c18 -40 20 -66 20 -216 -1 -188 -9 -218 -56
-218 -50 0 -57 30 -53 232 2 152 6 188 21 216 24 44 44 40 68 -14z M4450 7741
c-360 -76 -603 -332 -693 -731 l-22 -95 1 -2885 c0 -2698 1 -2891 17 -2973 93
-468 407 -750 862 -774 288 -15 532 72 710 251 130 130 197 251 253 453 l27
98 3 2885 c2 2059 0 2908 -8 2965 -59 431 -324 727 -722 809 -106 22 -317 20
-428 -3z m384 -371 c87 -22 157 -57 215 -107 89 -75 161 -229 181 -385 8 -58
10 -927 8 -2913 l-3 -2830 -23 -73 c-64 -207 -182 -333 -360 -386 -83 -24
-206 -29 -299 -13 -210 38 -345 164 -415 387 l-23 75 0 2895 c0 2763 1 2898
18 2959 61 215 199 354 391 396 92 20 220 18 310 -5z"/></g></svg>